<svg width="34" height="34" viewBox="0 0 34 34" fill="none" xmlns="http://www.w3.org/2000/svg">
<path fill-rule="evenodd" clip-rule="evenodd" d="M27.9788 17.0001C27.9788 16.4133 27.5031 15.9376 26.9163 15.9376H7.08301C6.4962 15.9376 6.02051 16.4133 6.02051 17.0001C6.02051 17.5869 6.4962 18.0626 7.08301 18.0626H26.9163C27.5031 18.0626 27.9788 17.5869 27.9788 17.0001Z" fill="#12616A"/>
<path fill-rule="evenodd" clip-rule="evenodd" d="M27.9788 9.91675C27.9788 9.32995 27.5031 8.85425 26.9163 8.85425H7.08301C6.4962 8.85425 6.02051 9.32995 6.02051 9.91675C6.02051 10.5036 6.4962 10.9792 7.08301 10.9792H26.9163C27.5031 10.9792 27.9788 10.5036 27.9788 9.91675Z" fill="#12616A"/>
<path fill-rule="evenodd" clip-rule="evenodd" d="M27.9788 24.0834C27.9788 23.4966 27.5031 23.0209 26.9163 23.0209H7.08301C6.4962 23.0209 6.02051 23.4966 6.02051 24.0834C6.02051 24.6702 6.4962 25.1459 7.08301 25.1459H26.9163C27.5031 25.1459 27.9788 24.6702 27.9788 24.0834Z" fill="#12616A"/>
</svg>
